<svg width="100" height="40" fill="none" xmlns="http://www.w3.org/2000/svg"><g clip-path="url(#clip0_4010_217)" fill="#231B49"><path d="M0 13.7C0 7.445 4.687 2.595 13.798 2.595c8.548 0 13.09 4.026 13.797 9.122h-7.37c-.324-1.341-2.182-3.022-6.424-3.022-4.241 0-6.424 2.198-6.424 5.001 0 2.803 2.124 5.001 6.424 5.001 4.3 0 6.103-1.677 6.425-3.022h7.37c-.709 5.096-5.25 9.122-13.798 9.122C4.687 24.801 0 19.951 0 13.696v.004zm2.854 21.402v2.191h-.989V29.78H4.68c1.938 0 2.949.933 2.949 2.66 0 1.726-1.011 2.659-2.95 2.659H2.855v.003zm1.822-.899c1.212 0 1.916-.566 1.916-1.76 0-1.193-.708-1.76-1.916-1.76H2.854v3.52h1.822zm6.22-2.277c1.62 0 2.836 1.061 2.836 2.735 0 1.673-1.212 2.734-2.836 2.734-1.625 0-2.836-1.061-2.836-2.735 0-1.673 1.211-2.734 2.836-2.734zm0 .861c-1.183 0-1.91.805-1.91 1.877 0 1.073.727 1.877 1.91 1.877 1.182 0 1.909-.804 1.909-1.877 0-1.072-.727-1.877-1.91-1.877zm7.377.234h-.044l-1.328 4.272h-1.212l-1.53-5.258h.916l1.212 4.25h.044l1.329-4.25h1.182l1.329 4.25h.044l1.212-4.25h.916l-1.53 5.258h-1.211l-1.33-4.272zm10.136 2.081h-4.668c0 .472.613 1.439 1.916 1.439 1.157 0 1.57-.7 1.57-.7h1.065s-.507 1.557-2.635 1.557c-1.676 0-2.887-1.061-2.887-2.735 0-1.673 1.211-2.734 2.836-2.734 1.624 0 2.836 1.061 2.836 2.734 0 .257-.033.439-.033.439zm-4.68-.835h3.753c0-.518-.602-1.48-1.876-1.48s-1.877.962-1.877 1.48zM32.932 32v1.009s-.296-.106-.781-.106c-1.14 0-1.793.846-1.793 1.889v2.5h-.905v-5.258h.905v1.02h.052s.452-1.125 1.898-1.125c.368 0 .62.075.62.075l.004-.003zm5.964 3.102h-4.668c0 .472.613 1.439 1.916 1.439 1.157 0 1.57-.7 1.57-.7h1.066s-.508 1.557-2.636 1.557c-1.675 0-2.887-1.061-2.887-2.735 0-1.673 1.212-2.734 2.836-2.734 1.624 0 2.836 1.061 2.836 2.734 0 .257-.033.439-.033.439zm-4.68-.835h3.753c0-.518-.602-1.48-1.876-1.48s-1.876.962-1.876 1.48zm11.181 3.025h-.905v-.781h-.044s-.58.891-1.982.891c-1.515 0-2.741-1.061-2.741-2.735 0-1.673 1.222-2.734 2.74-2.734 1.402 0 1.983.891 1.983.891h.044v-3.037h.905V37.3v-.008zm-2.825-.751c1.182 0 1.916-.805 1.916-1.877 0-1.073-.77-1.878-1.916-1.878s-1.917.805-1.917 1.877c0 1.073.738 1.878 1.917 1.878zm6.22-6.761h.905v3.037h.044s.58-.892 1.982-.892c1.515 0 2.741 1.062 2.741 2.735 0 1.674-1.222 2.735-2.74 2.735-1.403 0-1.983-.892-1.983-.892h-.044v.782h-.905v-7.512.007zm2.822 3.007c-1.15 0-1.917.774-1.917 1.877s.738 1.877 1.917 1.877 1.916-.804 1.916-1.877-.737-1.877-1.916-1.877zm5.934 3.475h.033l1.781-4.227h.982l-2.383 5.56c-.519 1.213-.865 1.953-1.971 1.953-.42 0-.72-.106-.72-.106v-.804s.263.105.632.105c.602 0 .821-.438 1.095-1.148l.073-.192-2.497-5.368h.971l2.004 4.227zm38.539-3.596c.832 0 1.168.589 1.168.997h-2.337c0-.412.34-.997 1.168-.997zm.981 2.817c-.156.31-.51.518-.97.518-.87 0-1.212-.631-1.223-1.194h4.314c.015-.08.044-.302.044-.48 0-1.986-1.34-3.104-3.15-3.104-1.91 0-3.245 1.121-3.245 3.105 0 1.983 1.336 3.104 3.256 3.104 1.92 0 2.778-1.061 3.011-1.952h-2.04l.003.003zm-31.04.167c-.774 0-1.325-.567-1.325-1.319s.518-1.318 1.325-1.318c.807 0 1.325.604 1.325 1.318 0 .714-.522 1.318-1.325 1.318zm.58-4.37c-.85 0-1.58.38-1.956.83v-.714H62.71V39.6h2v-2.938c.471.513 1.125.71 1.785.71 1.982 0 2.902-1.526 2.902-3.048 0-1.878-1.183-3.049-2.789-3.049v.004zm5.457-2.225h-2.011v8.204h2.011v-8.204zm4.848 2.341v3.049c0 .46-.063.687-.249.91-.178.215-.46.317-.773.317-.314 0-.596-.102-.774-.317-.187-.223-.249-.45-.249-.91v-3.049h-2v3.23c0 .907.139 1.5.562 2.002.453.532 1.143.744 1.818.744.792 0 1.34-.302 1.72-.752v.635h1.941v-5.859h-2 .004zm8.527 0h-1.37l-1.507 1.564-1.508-1.564h-1.369v1.394l1.534 1.538-1.534 1.537v1.394h1.37l1.507-1.564 1.507 1.564h1.37v-1.394l-1.534-1.537 1.533-1.538v-1.393zm3.693 1.27c.833 0 1.169.589 1.169.997h-2.337c0-.412.34-.997 1.168-.997zm.982 2.817c-.157.31-.51.518-.97.518-.87 0-1.212-.631-1.223-1.194h4.314c.015-.08.044-.302.044-.48 0-1.986-1.34-3.104-3.15-3.104-1.91 0-3.245 1.121-3.245 3.105 0 1.983 1.336 3.104 3.256 3.104 1.92 0 2.777-1.061 3.011-1.952h-2.04l.003.003zM50.562 24.692c-4.063 0-5.322-3.31-5.322-3.31h-.321v2.977h-6.45V1.197h6.45V9.47h.292s1.482-1.986 5.354-1.986c3.873 0 7.257 2.814 7.257 8.604 0 5.79-3.387 8.605-7.257 8.605h-.003zm-2.58-11.415c-1.935 0-3.063 1.027-3.063 2.814 0 1.688 1.033 2.814 3.062 2.814 2.03 0 3.063-1.126 3.063-2.814 0-1.689-1.066-2.814-3.063-2.814zM33.005.4c2.033 0 3.355.967 3.355 2.803 0 1.836-1.322 2.87-3.355 2.87s-3.42-.966-3.42-2.87C29.585 1.3 30.906.4 33.005.4zM36.2 24.363h-6.45V7.815h6.45v16.548zm29.846-8.51c0 1.82 1.066 3.112 3.063 3.112s3.063-1.292 3.063-3.112V7.879h6.45v16.544h-6.45v-2.976h-.322s-1.16 3.309-5.803 3.309c-3.87 0-6.45-2.15-6.45-6.95V7.878h6.45v7.974zm26.61-2.818c0-.729 0-1.628-2.811-1.628-2.019 0-2.665.499-2.665 1.198 0 2.489 12.82-.797 12.82 6.742 0 3.785-3.567 5.413-9.83 5.413-6.264 0-9.76-1.496-9.76-5.643v-.533h6.409v.533c0 1.261.938 1.726 3.35 1.726 2.56 0 3.42-.499 3.42-1.394 0-2.89-12.819.665-12.819-6.84 0-3.253 3.311-5.115 9.111-5.115 5.8 0 9.184 1.662 9.184 5.545h-6.41v-.004z"/></g><defs><clipPath id="clip0_4010_217"><path fill="#fff" transform="translate(0 .4)" d="M0 0h100v39.2H0z"/></clipPath></defs></svg>